<?xml version="1.0" standalone="no"?><!DOCTYPE svg PUBLIC "-//W3C//DTD SVG 1.1//EN" "http://www.w3.org/Graphics/SVG/1.1/DTD/svg11.dtd"><svg t="1766733810968" class="icon" viewBox="0 0 1024 1024" version="1.1" xmlns="http://www.w3.org/2000/svg" p-id="8518" xmlns:xlink="http://www.w3.org/1999/xlink" width="16" height="16"><path d="M950.4 425.4c-11.8-59.2-34.8-114.4-68.4-164-32.5-47.9-73.4-88.5-121.7-120.8S658.8 85.9 602.2 74.2c-58.7-12.2-118.5-12.4-177.7-0.7-81.3 16.1-155 53.5-215.2 108.9l-95-97.8C105 75 88.6 81.5 88.4 94.9l-3.6 249c-0.1 8.3 6.5 15.2 14.8 15.3l249 3.6c13.4 0.2 20.4-15.9 11-25.6L259.5 234.1c50.2-45.7 111.5-76.5 179-89.9 98.4-19.5 198.5 0.5 281.8 56.2 83.4 55.8 140 140.6 159.5 239s-0.5 198.5-56.2 281.8c-55.8 83.4-140.6 140-239 159.5-77.3 15.3-156 6.3-227.6-26.1-70.1-31.7-127.9-83.1-167.4-148.7-10.2-17-32.4-22.6-49.4-12.3-17 10.2-22.5 32.4-12.3 49.4 23.4 38.9 52.5 74 86.7 104.2 33.7 29.9 71.7 54.5 112.7 73.1 58.3 26.4 120.5 39.8 183.5 39.8 29.2 0 58.6-2.9 87.8-8.7 59.2-11.8 114.4-34.8 164-68.4 47.9-32.5 88.5-73.4 120.8-121.7s54.6-101.5 66.4-158.2c12.2-58.7 12.4-118.5 0.6-177.7z" fill="#333333" p-id="8519"></path></svg>