<?xml version="1.0" standalone="no"?><!DOCTYPE svg PUBLIC "-//W3C//DTD SVG 1.1//EN" "http://www.w3.org/Graphics/SVG/1.1/DTD/svg11.dtd"><svg t="1766733922997" class="icon" viewBox="0 0 1024 1024" version="1.1" xmlns="http://www.w3.org/2000/svg" p-id="11381" xmlns:xlink="http://www.w3.org/1999/xlink" width="16" height="16"><path d="M128.023999 638.168114C128.023999 570.780326 161.749891 484.257734 222.034123 380.776201c23.9985-41.149428 51.83676-84.282732 82.810824-128.759952A2936.136491 2936.136491 0 0 1 473.858384 33.085932l4.031748-4.671708L502.592588 0l24.766452 28.414224 3.967752 4.735704 11.071308 12.991188a2970.630336 2970.630336 0 0 1 158.070121 206.003125c30.846072 44.413224 58.748328 87.546528 82.682832 128.63196 60.284232 103.481532 94.07412 190.068121 94.07412 257.391913 0 212.850697-167.541529 385.76789-374.632585 385.76789C295.565527 1023.936004 128.023999 851.018811 128.023999 638.168114z m346.730329-502.752577a2830.927067 2830.927067 0 0 0-116.088745 154.678332c-30.07812 43.069308-56.95644 84.666708-79.995 124.280233-54.780576 93.882132-84.986688 171.381289-84.986688 223.794012 0 176.756953 138.551341 319.660021 308.908693 319.660022 170.421349 0 308.908693-142.903069 308.908693-319.660022 0-52.412724-30.206112-129.911881-84.986688-223.794012a1860.363727 1860.363727 0 0 0-79.867008-124.280233 2899.082807 2899.082807 0 0 0-144.054997-188.788201c-8.703456 10.495344-17.982876 21.886632-27.83826 34.109869z m27.83826 773.711643c-144.310981 0-261.359665-118.136616-261.359665-263.983501 0-145.782889 135.863509-71.9955 261.359665 0 126.07212 72.31548 261.359665-145.782889 261.359665 0s-117.048684 263.919505-261.359665 263.919505z" fill="#B4B4B4" p-id="11382"></path></svg>